# xmcd
#
# Track frame offsets:
#       150
#       13109
#       24906
#       40873
#       54025
#       61828
#       75917
#       90050
#       99470
#       113884
#       123300
#       133192
#       148589
#       163313
#       174875
#       188044
#       204742
#       216102
#       228795
#       237925
#
# Disc length: 3391 seconds
#
# Revision: 8
# Processed by: cddbd v1.5.2PL0 Copyright (c) Steve Scherf et al.
# Submitted via: FreeDbEdit v0.1
#
DISCID=f60d3d14
DTITLE=Various Artist - Hit Mania Dance Champions 2002
DYEAR=2002
DGENRE=Dance
TTITLE0=Hot Coffee pres. Pink Coffee - Another Brick in the Wall
TTITLE1=The Product G&B - Dirty Dancin (remix) (feat. Carlos Santana)
TTITLE2=Datura - Will Be One
TTITLE3=DB Boulevard - Point of View
TTITLE4=Basstoy feat Dana - Runnin'
TTITLE5=Paps 'N' Skar - Loving You
TTITLE6=Edge of Universe - Life Force (feat. Dominique)
TTITLE7=Praise Cats - Shined on Me (feat. Andrea Love)
TTITLE8=Molella - Whistle's Party
TTITLE9=4 Clubbers - Children (remix)
TTITLE10=Carolina Marquez - Mas Musica
TTITLE11=M@D - Its Name Is...
TTITLE12=DJ Ross - Dreamland
TTITLE13=The Soundlovers - Flow
TTITLE14=B-1 - Indian Summer (feat. Maverick)
TTITLE15=J.C.A. - I Begin to Wonder
TTITLE16=Astroboys - The Night
TTITLE17=Jamiroquai - Love Foolosophy (remix)
TTITLE18=Hot Case - Contact
TTITLE19=Five for Fighting - Superman
EXTD=Universal Music Italia\n2002 Hit Mania Ltd.
EXTT0=
EXTT1=
EXTT2=
EXTT3=
EXTT4=
EXTT5=
EXTT6=
EXTT7=
EXTT8=
EXTT9=
EXTT10=
EXTT11=
EXTT12=
EXTT13=
EXTT14=
EXTT15=
EXTT16=
EXTT17=
EXTT18=
EXTT19=
PLAYORDER=
